<mxfile host="65bd71144e">
    <diagram id="fx3uwRQY4Y8mNUX3knXq" name="Page-1">
        <mxGraphModel dx="2042" dy="787" grid="1" gridSize="10" guides="1" tooltips="1" connect="1" arrows="1" fold="1" page="1" pageScale="1" pageWidth="850" pageHeight="1100" math="0" shadow="0">
            <root>
                <mxCell id="0"/>
                <mxCell id="1" parent="0"/>
                <mxCell id="2" value="" style="shape=image;verticalLabelPosition=bottom;labelBackgroundColor=default;verticalAlign=top;aspect=fixed;imageAspect=0;image=https://i.pinimg.com/236x/54/8c/9f/548c9f5ff45f5781f63fcd62f0beb873.jpg;" vertex="1" parent="1">
                    <mxGeometry x="215.8" y="180" width="106.82" height="180" as="geometry"/>
                </mxCell>
                <mxCell id="4" value="1.-Concepto -&amp;gt; idiea -&amp;gt; Dibujo/Prototipo" style="text;strokeColor=none;fillColor=none;html=1;fontSize=24;fontStyle=1;verticalAlign=middle;align=center;dashed=1;dashPattern=1 4;" vertex="1" parent="1">
                    <mxGeometry x="28.41" y="70" width="481.59" height="50" as="geometry"/>
                </mxCell>
                <mxCell id="9" style="edgeStyle=none;html=1;entryX=0.54;entryY=-0.015;entryDx=0;entryDy=0;entryPerimeter=0;fontSize=14;fontColor=#FFFFFF;" edge="1" parent="1" source="5" target="8">
                    <mxGeometry relative="1" as="geometry"/>
                </mxCell>
                <mxCell id="5" value="Proceso de descripcion" style="text;strokeColor=none;fillColor=none;html=1;fontSize=24;fontStyle=1;verticalAlign=middle;align=center;dashed=1;dashPattern=1 4;" vertex="1" parent="1">
                    <mxGeometry x="425" y="130" width="300" height="40" as="geometry"/>
                </mxCell>
                <mxCell id="8" value="&lt;font color=&quot;#ffffff&quot;&gt;-EDAD = NUMERO&amp;nbsp;&lt;br&gt;-GENERO = &quot;M/F&quot;&lt;br&gt;+tieneOJOS = &quot;SI/NO&quot; OR 1,2&lt;br&gt;+tipoCABELLO=&quot;&amp;nbsp; &quot;&lt;br&gt;&lt;/font&gt;&lt;h4 style=&quot;line-height: 0%;&quot;&gt;&lt;span style=&quot;font-family: &amp;quot;Google Sans&amp;quot;, Roboto, &amp;quot;Helvetica Neue&amp;quot;, Arial, sans-serif; text-align: start; font-weight: normal; background-color: rgb(27, 24, 24);&quot;&gt;&lt;font style=&quot;&quot; color=&quot;#ffffff&quot;&gt;&lt;span style=&quot;font-size: 18px;&quot;&gt;~&lt;/span&gt;&lt;font style=&quot;font-size: 14px;&quot;&gt;Estatura = numero&lt;/font&gt;&lt;/font&gt;&lt;/span&gt;&lt;/h4&gt;&lt;div&gt;&lt;span style=&quot;font-family: &amp;quot;Google Sans&amp;quot;, Roboto, &amp;quot;Helvetica Neue&amp;quot;, Arial, sans-serif; text-align: start; font-weight: normal; background-color: rgb(27, 24, 24);&quot;&gt;&lt;font style=&quot;&quot; color=&quot;#ffffff&quot;&gt;&lt;font style=&quot;font-size: 14px;&quot;&gt;+nroBrazos =&lt;/font&gt;&lt;/font&gt;&lt;/span&gt;&lt;/div&gt;" style="whiteSpace=wrap;html=1;aspect=fixed;dashed=1;dashPattern=1 4;" vertex="1" parent="1">
                    <mxGeometry x="470" y="210" width="200" height="200" as="geometry"/>
                </mxCell>
                <mxCell id="10" value="Mujer" style="text;html=1;strokeColor=none;fillColor=none;align=center;verticalAlign=middle;whiteSpace=wrap;rounded=0;dashed=1;dashPattern=1 4;labelBackgroundColor=#1b1818;fontSize=14;fontColor=#FFFFFF;" vertex="1" parent="1">
                    <mxGeometry x="239.21" y="370" width="60" height="30" as="geometry"/>
                </mxCell>
                <mxCell id="11" value="Propiedades(Caracteristicas)" style="text;html=1;strokeColor=none;fillColor=none;align=center;verticalAlign=middle;whiteSpace=wrap;rounded=0;dashed=1;dashPattern=1 4;labelBackgroundColor=#1b1818;fontSize=14;fontColor=#FFFFFF;" vertex="1" parent="1">
                    <mxGeometry x="70" y="170" width="60" height="30" as="geometry"/>
                </mxCell>
                <mxCell id="13" value="Metodos(Acciones)" style="text;html=1;strokeColor=none;fillColor=none;align=center;verticalAlign=middle;whiteSpace=wrap;rounded=0;dashed=1;dashPattern=1 4;labelBackgroundColor=#1b1818;fontSize=14;fontColor=#FFFFFF;" vertex="1" parent="1">
                    <mxGeometry x="40" y="295" width="60" height="30" as="geometry"/>
                </mxCell>
                <mxCell id="15" style="edgeStyle=none;html=1;entryX=0;entryY=0.75;entryDx=0;entryDy=0;fontSize=14;fontColor=#FFFFFF;" edge="1" parent="1" source="14" target="11">
                    <mxGeometry relative="1" as="geometry"/>
                </mxCell>
                <mxCell id="14" value="Atributos" style="text;html=1;strokeColor=none;fillColor=none;align=center;verticalAlign=middle;whiteSpace=wrap;rounded=0;dashed=1;dashPattern=1 4;labelBackgroundColor=#1b1818;fontSize=14;fontColor=#FFFFFF;" vertex="1" parent="1">
                    <mxGeometry x="40" y="230" width="60" height="30" as="geometry"/>
                </mxCell>
                <mxCell id="17" style="edgeStyle=none;html=1;entryX=0.5;entryY=1;entryDx=0;entryDy=0;fontSize=14;fontColor=#FFFFFF;" edge="1" parent="1" source="16" target="13">
                    <mxGeometry relative="1" as="geometry"/>
                </mxCell>
                <mxCell id="16" value="Verbo" style="text;html=1;strokeColor=none;fillColor=none;align=center;verticalAlign=middle;whiteSpace=wrap;rounded=0;dashed=1;dashPattern=1 4;labelBackgroundColor=#1b1818;fontSize=14;fontColor=#FFFFFF;" vertex="1" parent="1">
                    <mxGeometry x="40" y="370" width="60" height="30" as="geometry"/>
                </mxCell>
                <mxCell id="19" style="edgeStyle=none;html=1;entryX=1;entryY=1;entryDx=0;entryDy=0;fontSize=14;fontColor=#FFFFFF;" edge="1" parent="1" source="18" target="10">
                    <mxGeometry relative="1" as="geometry"/>
                </mxCell>
                <mxCell id="18" value="(Sujeto/objeto)" style="text;html=1;strokeColor=none;fillColor=none;align=center;verticalAlign=middle;whiteSpace=wrap;rounded=0;dashed=1;dashPattern=1 4;labelBackgroundColor=#1b1818;fontSize=14;fontColor=#FFFFFF;" vertex="1" parent="1">
                    <mxGeometry x="365" y="410" width="60" height="30" as="geometry"/>
                </mxCell>
                <mxCell id="20" value="+caminar (tiempo:1hora,lugar:&quot;playa&quot;)&lt;br&gt;&lt;h4 style=&quot;color: rgb(240, 240, 240); background-color: rgb(42, 37, 47); line-height: 0%;&quot;&gt;&lt;span style=&quot;font-family: &amp;quot;Google Sans&amp;quot;, Roboto, &amp;quot;Helvetica Neue&amp;quot;, Arial, sans-serif; text-align: start; font-weight: normal; background-color: rgb(27, 24, 24);&quot;&gt;&lt;font style=&quot;font-size: 13px;&quot; color=&quot;#ffffff&quot;&gt;~Dormir()&lt;/font&gt;&lt;/span&gt;&lt;/h4&gt;&lt;div&gt;&lt;span style=&quot;font-family: &amp;quot;Google Sans&amp;quot;, Roboto, &amp;quot;Helvetica Neue&amp;quot;, Arial, sans-serif; text-align: start; font-weight: normal; background-color: rgb(27, 24, 24);&quot;&gt;&lt;font style=&quot;font-size: 13px;&quot; color=&quot;#ffffff&quot;&gt;+Comer()&lt;/font&gt;&lt;/span&gt;&lt;/div&gt;&lt;div&gt;&lt;span style=&quot;font-family: &amp;quot;Google Sans&amp;quot;, Roboto, &amp;quot;Helvetica Neue&amp;quot;, Arial, sans-serif; text-align: start; font-weight: normal; background-color: rgb(27, 24, 24);&quot;&gt;&lt;font style=&quot;font-size: 13px;&quot; color=&quot;#ffffff&quot;&gt;+Saltar()&lt;/font&gt;&lt;/span&gt;&lt;/div&gt;&lt;div style=&quot;&quot;&gt;&lt;h4 style=&quot;color: rgb(240, 240, 240); background-color: rgb(42, 37, 47); line-height: 0px;&quot;&gt;&lt;span style=&quot;font-family: &amp;quot;Google Sans&amp;quot;, Roboto, &amp;quot;Helvetica Neue&amp;quot;, Arial, sans-serif; text-align: start; font-weight: normal; background-color: rgb(27, 24, 24);&quot;&gt;&lt;font style=&quot;font-size: 14px;&quot; color=&quot;#ffffff&quot;&gt;~tocar()&lt;/font&gt;&lt;/span&gt;&lt;/h4&gt;&lt;/div&gt;&lt;div style=&quot;&quot;&gt;&lt;h4 style=&quot;color: rgb(240, 240, 240); background-color: rgb(42, 37, 47); line-height: 0px;&quot;&gt;&lt;span style=&quot;font-family: &amp;quot;Google Sans&amp;quot;, Roboto, &amp;quot;Helvetica Neue&amp;quot;, Arial, sans-serif; text-align: start; font-weight: normal; background-color: rgb(27, 24, 24);&quot;&gt;&lt;font style=&quot;font-size: 14px;&quot; color=&quot;#ffffff&quot;&gt;~bailar()&lt;/font&gt;&lt;/span&gt;&lt;/h4&gt;&lt;/div&gt;&lt;div style=&quot;&quot;&gt;&lt;span style=&quot;font-family: &amp;quot;Google Sans&amp;quot;, Roboto, &amp;quot;Helvetica Neue&amp;quot;, Arial, sans-serif; text-align: start; font-weight: normal; background-color: rgb(27, 24, 24);&quot;&gt;&lt;font style=&quot;font-size: 13px;&quot; color=&quot;#ffffff&quot;&gt;&lt;br&gt;&lt;/font&gt;&lt;/span&gt;&lt;/div&gt;" style="whiteSpace=wrap;html=1;aspect=fixed;dashed=1;dashPattern=1 4;labelBackgroundColor=#1b1818;fontSize=14;fontColor=#FFFFFF;" vertex="1" parent="1">
                    <mxGeometry x="10" y="430" width="270" height="270" as="geometry"/>
                </mxCell>
                <mxCell id="24" style="edgeStyle=none;html=1;fontSize=14;fontColor=#FFFFFF;entryX=0.5;entryY=1;entryDx=0;entryDy=0;" edge="1" parent="1" source="21" target="23">
                    <mxGeometry relative="1" as="geometry">
                        <mxPoint x="520" y="500" as="targetPoint"/>
                    </mxGeometry>
                </mxCell>
                <mxCell id="21" value="Parametros" style="text;html=1;strokeColor=none;fillColor=none;align=center;verticalAlign=middle;whiteSpace=wrap;rounded=0;dashed=1;dashPattern=1 4;labelBackgroundColor=#1b1818;fontSize=14;fontColor=#FFFFFF;" vertex="1" parent="1">
                    <mxGeometry x="365" y="560" width="60" height="30" as="geometry"/>
                </mxCell>
                <mxCell id="23" value="+caminar (tiempo:1hora,lugar:&quot;playa&quot;)" style="text;html=1;strokeColor=none;fillColor=none;align=center;verticalAlign=middle;whiteSpace=wrap;rounded=0;dashed=1;dashPattern=1 4;labelBackgroundColor=#1b1818;fontSize=14;fontColor=#FFFFFF;" vertex="1" parent="1">
                    <mxGeometry x="290" y="470" width="260" height="10" as="geometry"/>
                </mxCell>
                <mxCell id="27" style="edgeStyle=none;html=1;entryX=0;entryY=0.5;entryDx=0;entryDy=0;fontSize=14;fontColor=#FFFFFF;" edge="1" parent="1" source="25" target="26">
                    <mxGeometry relative="1" as="geometry"/>
                </mxCell>
                <mxCell id="29" style="edgeStyle=none;html=1;entryX=0.5;entryY=0;entryDx=0;entryDy=0;fontSize=14;fontColor=#FFFFFF;" edge="1" parent="1" source="25" target="28">
                    <mxGeometry relative="1" as="geometry"/>
                </mxCell>
                <mxCell id="25" value="Metodos" style="text;html=1;strokeColor=none;fillColor=none;align=center;verticalAlign=middle;whiteSpace=wrap;rounded=0;dashed=1;dashPattern=1 4;labelBackgroundColor=#1b1818;fontSize=14;fontColor=#FFFFFF;" vertex="1" parent="1">
                    <mxGeometry x="560" y="520" width="60" height="30" as="geometry"/>
                </mxCell>
                <mxCell id="26" value="Retorna en un valor o no retorna en nada" style="text;html=1;strokeColor=none;fillColor=none;align=center;verticalAlign=middle;whiteSpace=wrap;rounded=0;dashed=1;dashPattern=1 4;labelBackgroundColor=#1b1818;fontSize=14;fontColor=#FFFFFF;" vertex="1" parent="1">
                    <mxGeometry x="690" y="480" width="150" height="70" as="geometry"/>
                </mxCell>
                <mxCell id="28" value="(ambito)" style="text;html=1;strokeColor=none;fillColor=none;align=center;verticalAlign=middle;whiteSpace=wrap;rounded=0;dashed=1;dashPattern=1 4;labelBackgroundColor=#1b1818;fontSize=14;fontColor=#FFFFFF;" vertex="1" parent="1">
                    <mxGeometry x="560" y="570" width="60" height="30" as="geometry"/>
                </mxCell>
                <mxCell id="32" value="" style="endArrow=none;html=1;fontSize=14;fontColor=#FFFFFF;entryX=0.5;entryY=1;entryDx=0;entryDy=0;" edge="1" parent="1" target="28">
                    <mxGeometry width="50" height="50" relative="1" as="geometry">
                        <mxPoint x="590" y="690" as="sourcePoint"/>
                        <mxPoint x="610" y="640" as="targetPoint"/>
                    </mxGeometry>
                </mxCell>
                <mxCell id="33" value="public&amp;nbsp;&lt;br&gt;private&lt;br&gt;protect&lt;br&gt;friendly" style="text;html=1;strokeColor=none;fillColor=none;align=center;verticalAlign=middle;whiteSpace=wrap;rounded=0;dashed=1;dashPattern=1 4;labelBackgroundColor=#1b1818;fontSize=14;fontColor=#FFFFFF;" vertex="1" parent="1">
                    <mxGeometry x="675" y="620" width="50" height="90" as="geometry"/>
                </mxCell>
                <mxCell id="35" value="" style="endArrow=classic;html=1;fontSize=14;fontColor=#FFFFFF;entryX=0;entryY=0.75;entryDx=0;entryDy=0;" edge="1" parent="1" target="33">
                    <mxGeometry width="50" height="50" relative="1" as="geometry">
                        <mxPoint x="590" y="690" as="sourcePoint"/>
                        <mxPoint x="560" y="680" as="targetPoint"/>
                    </mxGeometry>
                </mxCell>
                <mxCell id="36" value="" style="endArrow=classic;html=1;fontSize=14;fontColor=#FFFFFF;entryX=0.02;entryY=0.6;entryDx=0;entryDy=0;entryPerimeter=0;" edge="1" parent="1" target="33">
                    <mxGeometry width="50" height="50" relative="1" as="geometry">
                        <mxPoint x="590" y="680" as="sourcePoint"/>
                        <mxPoint x="480" y="660" as="targetPoint"/>
                    </mxGeometry>
                </mxCell>
                <mxCell id="37" value="" style="endArrow=classic;html=1;fontSize=14;fontColor=#FFFFFF;entryX=-0.04;entryY=0.4;entryDx=0;entryDy=0;entryPerimeter=0;" edge="1" parent="1" target="33">
                    <mxGeometry width="50" height="50" relative="1" as="geometry">
                        <mxPoint x="590" y="660" as="sourcePoint"/>
                        <mxPoint x="550" y="650" as="targetPoint"/>
                    </mxGeometry>
                </mxCell>
                <mxCell id="38" value="" style="endArrow=classic;html=1;fontSize=14;fontColor=#FFFFFF;entryX=0.02;entryY=0.178;entryDx=0;entryDy=0;entryPerimeter=0;" edge="1" parent="1" target="33">
                    <mxGeometry width="50" height="50" relative="1" as="geometry">
                        <mxPoint x="590" y="640" as="sourcePoint"/>
                        <mxPoint x="520" y="650" as="targetPoint"/>
                    </mxGeometry>
                </mxCell>
                <mxCell id="39" value="2) LENGUAJE MODELADO UNIFICADO (UML) (DIAGRAMA DE CLASE" style="text;html=1;strokeColor=none;fillColor=none;align=center;verticalAlign=middle;whiteSpace=wrap;rounded=0;dashed=1;dashPattern=1 4;labelBackgroundColor=#1b1818;fontSize=14;fontColor=#FFFFFF;" vertex="1" parent="1">
                    <mxGeometry x="-30" y="760" width="520" height="30" as="geometry"/>
                </mxCell>
                <mxCell id="40" value="+Mujer    " style="swimlane;fontStyle=1;align=center;verticalAlign=top;childLayout=stackLayout;horizontal=1;startSize=26;horizontalStack=0;resizeParent=1;resizeParentMax=0;resizeLast=0;collapsible=1;marginBottom=0;dashed=1;dashPattern=1 4;labelBackgroundColor=#1b1818;fontSize=14;fontColor=#FFFFFF;" vertex="1" parent="1">
                    <mxGeometry x="40" y="820" width="400" height="220" as="geometry"/>
                </mxCell>
                <mxCell id="41" value="-edad:float&#10;+tieneOjos:boolean&#10;+tipodeCabello:String&#10;. . ." style="text;strokeColor=none;fillColor=none;align=left;verticalAlign=top;spacingLeft=4;spacingRight=4;overflow=hidden;rotatable=0;points=[[0,0.5],[1,0.5]];portConstraint=eastwest;dashed=1;dashPattern=1 4;labelBackgroundColor=#1b1818;fontSize=14;fontColor=#FFFFFF;" vertex="1" parent="40">
                    <mxGeometry y="26" width="400" height="74" as="geometry"/>
                </mxCell>
                <mxCell id="42" value="" style="line;strokeWidth=1;fillColor=none;align=left;verticalAlign=middle;spacingTop=-1;spacingLeft=3;spacingRight=3;rotatable=0;labelPosition=right;points=[];portConstraint=eastwest;strokeColor=inherit;dashed=1;dashPattern=1 4;labelBackgroundColor=#1b1818;fontSize=14;fontColor=#FFFFFF;" vertex="1" parent="40">
                    <mxGeometry y="100" width="400" height="8" as="geometry"/>
                </mxCell>
                <mxCell id="43" value="&#10;~bailar (cancion: String, tiempoMin:int, ritmo: Strong): void&#10;+saltar(alturaMetros:int, cantidad: int):void&#10;.........." style="text;strokeColor=none;fillColor=none;align=left;verticalAlign=top;spacingLeft=4;spacingRight=4;overflow=hidden;rotatable=0;points=[[0,0.5],[1,0.5]];portConstraint=eastwest;dashed=1;dashPattern=1 4;labelBackgroundColor=#1b1818;fontSize=14;fontColor=#FFFFFF;" vertex="1" parent="40">
                    <mxGeometry y="108" width="400" height="112" as="geometry"/>
                </mxCell>
            </root>
        </mxGraphModel>
    </diagram>
</mxfile>